<svg xmlns="http://www.w3.org/2000/svg" xmlns:xlink="http://www.w3.org/1999/xlink" version="1.1" width="256" height="256" viewBox="0 0 256 256" xml:space="preserve">
<desc>Created with Fabric.js 1.7.22</desc>
<defs>
</defs>
<g transform="translate(128 128) scale(0.72 0.72)" style="">
	<g style="stroke: none; stroke-width: 0; stroke-dasharray: none; stroke-linecap: butt; stroke-linejoin: miter; stroke-miterlimit: 10; fill: none; fill-rule: nonzero; opacity: 1;" transform="translate(-175.05 -175.05000000000004) scale(3.89 3.89)" >
	<path d="M 89.823 11.221 c -0.341 -0.758 -1.117 -1.223 -1.946 -1.174 l -8.444 0.521 l 0.521 -8.444 c 0.052 -0.83 -0.416 -1.604 -1.174 -1.946 c -0.762 -0.343 -1.649 -0.178 -2.236 0.409 l -6.158 6.158 c -0.345 0.345 -0.552 0.804 -0.582 1.291 l -0.613 9.947 L 38.391 48.78 c -0.781 0.781 -0.781 2.047 0 2.828 c 0.391 0.391 0.902 0.586 1.414 0.586 s 1.024 -0.195 1.414 -0.586 L 72.018 20.81 l 9.947 -0.613 c 0.487 -0.03 0.946 -0.237 1.291 -0.582 l 6.158 -6.158 C 90.002 12.869 90.165 11.979 89.823 11.221 z M 80.963 16.251 l -7.688 0.474 l 0.473 -7.688 l 1.888 -1.887 l -0.335 5.43 c -0.035 0.572 0.177 1.132 0.582 1.537 c 0.405 0.406 0.971 0.621 1.537 0.582 l 5.43 -0.334 L 80.963 16.251 z" style="stroke: none; stroke-width: 1; stroke-dasharray: none; stroke-linecap: butt; stroke-linejoin: miter; stroke-miterlimit: 10; fill: rgb(248,213,104); fill-rule: nonzero; opacity: 1;" transform=" matrix(1 0 0 1 0 0) " stroke-linecap="round" />
	<path d="M 39.158 46.62 c 1.063 -0.299 1.684 -1.402 1.385 -2.466 c -0.298 -1.063 -1.403 -1.684 -2.466 -1.385 c -1.266 0.355 -2.355 0.983 -3.24 1.868 c -1.405 1.406 -2.18 3.275 -2.18 5.263 c 0 1.988 0.774 3.857 2.18 5.263 c 1.406 1.406 3.275 2.181 5.263 2.181 s 3.857 -0.774 5.263 -2.181 c 0.884 -0.886 1.513 -1.976 1.868 -3.239 c 0.299 -1.063 -0.321 -2.168 -1.385 -2.467 c -1.067 -0.3 -2.167 0.322 -2.466 1.385 c -0.168 0.597 -0.453 1.1 -0.846 1.493 c -1.3 1.301 -3.568 1.301 -4.869 0 c -0.65 -0.65 -1.008 -1.515 -1.008 -2.435 c 0 -0.919 0.358 -1.784 1.008 -2.435 C 38.059 47.072 38.561 46.788 39.158 46.62 z" style="stroke: none; stroke-width: 1; stroke-dasharray: none; stroke-linecap: butt; stroke-linejoin: miter; stroke-miterlimit: 10; fill: rgb(248,213,104); fill-rule: nonzero; opacity: 1;" transform=" matrix(1 0 0 1 0 0) " stroke-linecap="round" />
	<path d="M 46.522 34.781 c 0.306 -1.062 -0.309 -2.17 -1.37 -2.475 c -6.414 -1.841 -13.314 -0.066 -18.013 4.634 c -7.146 7.146 -7.146 18.773 0 25.92 c 3.461 3.462 8.064 5.369 12.96 5.369 c 4.896 0 9.498 -1.907 12.96 -5.369 c 4.699 -4.698 6.476 -11.601 4.634 -18.013 c -0.304 -1.062 -1.411 -1.673 -2.474 -1.371 c -1.062 0.305 -1.676 1.413 -1.37 2.474 c 1.439 5.015 0.053 10.41 -3.618 14.081 c -2.707 2.706 -6.305 4.197 -10.132 4.197 s -7.425 -1.491 -10.132 -4.197 c -2.706 -2.707 -4.197 -6.305 -4.197 -10.132 s 1.491 -7.425 4.197 -10.132 c 3.671 -3.671 9.067 -5.057 14.081 -3.618 C 45.111 36.456 46.219 35.842 46.522 34.781 z" style="stroke: none; stroke-width: 1; stroke-dasharray: none; stroke-linecap: butt; stroke-linejoin: miter; stroke-miterlimit: 10; fill: rgb(248,213,104); fill-rule: nonzero; opacity: 1;" transform=" matrix(1 0 0 1 0 0) " stroke-linecap="round" />
	<path d="M 54.676 26.86 c 0.521 -0.974 0.153 -2.186 -0.82 -2.707 c -11.428 -6.111 -25.258 -4.065 -34.413 5.09 c -11.391 11.39 -11.391 29.924 0 41.314 c 5.518 5.518 12.854 8.557 20.657 8.557 c 7.803 0 15.14 -3.039 20.657 -8.557 c 9.155 -9.155 11.201 -22.984 5.09 -34.413 c -0.521 -0.974 -1.73 -1.342 -2.707 -0.821 c -0.974 0.521 -1.341 1.733 -0.82 2.707 c 5.274 9.864 3.51 21.798 -4.391 29.699 c -4.763 4.763 -11.095 7.385 -17.829 7.385 c -6.735 0 -13.067 -2.622 -17.829 -7.385 c -9.831 -9.831 -9.831 -25.827 0 -35.658 c 7.9 -7.9 19.836 -9.665 29.698 -4.391 C 52.943 28.202 54.154 27.834 54.676 26.86 z" style="stroke: none; stroke-width: 1; stroke-dasharray: none; stroke-linecap: butt; stroke-linejoin: miter; stroke-miterlimit: 10; fill: rgb(248,213,104); fill-rule: nonzero; opacity: 1;" transform=" matrix(1 0 0 1 0 0) " stroke-linecap="round" />
	<path d="M 70.945 27.458 c -0.926 0.603 -1.187 1.842 -0.584 2.768 c 9.251 14.197 7.259 33.206 -4.735 45.201 c -14.076 14.074 -36.978 14.074 -51.053 0 c -14.075 -14.075 -14.075 -36.978 0 -51.053 c 11.995 -11.996 31.004 -13.987 45.201 -4.735 c 0.926 0.604 2.165 0.342 2.768 -0.584 c 0.603 -0.925 0.342 -2.165 -0.584 -2.768 C 46.188 6.011 25.07 8.221 11.745 21.546 c -15.635 15.635 -15.635 41.074 0 56.709 c 7.817 7.817 18.086 11.727 28.354 11.727 s 20.537 -3.909 28.354 -11.727 c 13.324 -13.323 15.535 -34.441 5.259 -50.213 C 73.109 27.117 71.871 26.856 70.945 27.458 z" style="stroke: none; stroke-width: 1; stroke-dasharray: none; stroke-linecap: butt; stroke-linejoin: miter; stroke-miterlimit: 10; fill: rgb(248,213,104); fill-rule: nonzero; opacity: 1;" transform=" matrix(1 0 0 1 0 0) " stroke-linecap="round" />
</g>
</g>
</svg>