<svg xmlns="http://www.w3.org/2000/svg" viewBox="0 0 206.01 189"><defs><style>.cls-1{fill:#fff;stroke:#231f20;stroke-miterlimit:10;stroke-width:5px;}.cls-2{fill:#231f20;}.cls-3{fill:#ed1c24;}</style></defs><g id="Layer_2" data-name="Layer 2"><g id="Layer_1-2" data-name="Layer 1"><rect class="cls-1" x="2.5" y="2.5" width="201.01" height="184" rx="18.5"/><path class="cls-2" d="M92.71,181.31a26,26,0,0,1-10.36,2.86c-15.44,0-23.63-8.58-23.63-26.19V94H42.08l-1-2.64,6.52-6.38H58.72V66.45c4.58-4.4,11.57-10.12,16.15-14.52l3.62.44c-.48,9.24-.72,22-.72,32.56h27.48c2.17,2.2,1.45,7-1.44,9h-26v56.33c0,17.82,7.71,21.12,14,21.12a37.08,37.08,0,0,0,14.71-3.52l2.17,5.72Z" transform="translate(0 -26.9)"/><path class="cls-3" d="M142.14,184.61c-8.68,0-14.71-5.72-14.71-14.09,0-7.92,6-14.08,14.71-14.08s15.19,6.16,15.19,14.08C157.33,178.89,150.82,184.61,142.14,184.61Z" transform="translate(0 -26.9)"/></g></g></svg>
